<svg width="613" height="97" viewBox="0 0 613 97" fill="none" xmlns="http://www.w3.org/2000/svg">
<path d="M69.4979 34.1435L69.4629 34.1285C69.4428 34.121 69.4228 34.1134 69.4053 34.0959C69.3766 34.0651 69.3553 34.028 69.3431 33.9876C69.331 33.9473 69.3283 33.9047 69.3352 33.8631L71.2706 22.0305L80.3465 31.109L70.9075 35.1249C70.8813 35.1355 70.8532 35.1406 70.8249 35.14H70.7873C70.7748 35.1324 70.7623 35.1224 70.7373 35.0974C70.386 34.7063 69.9659 34.383 69.4979 34.1435V34.1435ZM82.6624 33.4224L92.3668 43.1268C94.3823 45.1448 95.3913 46.1513 95.7593 47.318C95.8144 47.4908 95.8595 47.6635 95.8945 47.8413L72.7027 38.0192C72.6902 38.0141 72.6777 38.0091 72.6651 38.0042C72.5725 37.9666 72.4648 37.9241 72.4648 37.8289C72.4648 37.7338 72.575 37.6887 72.6676 37.6512L72.6977 37.6387L82.6624 33.4224ZM95.4989 50.9559C94.9982 51.8973 94.0217 52.8737 92.3693 54.5287L81.4281 65.4674L67.2771 62.5205L67.202 62.5055C67.0768 62.4855 66.9441 62.4629 66.9441 62.3503C66.8904 61.7665 66.7171 61.2001 66.4349 60.6862C66.1528 60.1723 65.7679 59.722 65.3042 59.3633C65.2466 59.3058 65.2616 59.2156 65.2792 59.133C65.2792 59.1205 65.2792 59.108 65.2842 59.0979L67.9456 42.7587L67.9556 42.7037C67.9707 42.5785 67.9932 42.4333 68.1059 42.4333C68.6762 42.3623 69.2267 42.1786 69.7254 41.8927C70.224 41.6069 70.6607 41.2246 71.0102 40.7683C71.0327 40.7433 71.0477 40.7157 71.0778 40.7007C71.1579 40.6631 71.253 40.7007 71.3356 40.7357L95.4964 50.9559H95.4989ZM78.9119 67.9836L60.9202 85.9752L63.9998 67.0472L64.0048 67.0222C64.0073 66.9971 64.0123 66.9721 64.0198 66.9496C64.0448 66.8895 64.1099 66.8644 64.1725 66.8394L64.2026 66.8269C64.8769 66.5392 65.4732 66.0956 65.9427 65.5325C66.0028 65.4624 66.0754 65.3948 66.168 65.3822C66.192 65.3783 66.2166 65.3783 66.2406 65.3822L78.9094 67.9861L78.9119 67.9836ZM57.1121 89.7834L55.0841 91.8114L32.6634 59.4084C32.6553 59.3966 32.6469 59.3849 32.6383 59.3734C32.6033 59.3258 32.5657 59.2782 32.5732 59.2231C32.5732 59.1831 32.6008 59.148 32.6283 59.118L32.6534 59.0854C32.721 58.9853 32.7785 58.8851 32.8411 58.7775L32.8912 58.6898L32.8987 58.6823C32.9338 58.6222 32.9663 58.5647 33.0264 58.5321C33.079 58.5071 33.1516 58.5171 33.2092 58.5296L58.0485 63.6522C58.1179 63.663 58.1834 63.6914 58.2387 63.7348C58.2713 63.7674 58.2788 63.8024 58.2863 63.8425C58.4596 64.498 58.782 65.1047 59.2285 65.615C59.675 66.1253 60.2334 66.5255 60.8601 66.7843C60.9302 66.8194 60.9002 66.897 60.8676 66.9796C60.8514 67.0158 60.8388 67.0536 60.8301 67.0923C60.5171 68.9951 57.8332 85.3643 57.1121 89.7834ZM52.8758 94.0172C51.3811 95.4968 50.4998 96.2805 49.5033 96.596C48.5208 96.9067 47.4664 96.9067 46.4838 96.596C45.3171 96.2254 44.3081 95.2189 42.2926 93.2009L19.7768 70.6851L25.658 61.5641C25.6855 61.519 25.7131 61.479 25.7581 61.4464C25.8207 61.4014 25.9109 61.4214 25.986 61.4464C27.3359 61.8537 28.7852 61.7802 30.0871 61.2386C30.1547 61.2136 30.2223 61.1961 30.2748 61.2436C30.3011 61.2676 30.3246 61.2945 30.3449 61.3237L52.8758 94.0197V94.0172ZM17.6061 68.5144L12.4409 63.3492L22.641 58.9978C22.6671 58.9864 22.6952 58.9805 22.7237 58.9803C22.8088 58.9803 22.8589 59.0654 22.9039 59.143C23.0064 59.3007 23.115 59.4544 23.2294 59.6037L23.2619 59.6438C23.292 59.6863 23.272 59.7289 23.2419 59.7689L17.6086 68.5144H17.6061ZM10.155 61.0634L3.62036 54.5287C2.50872 53.417 1.70252 52.6108 1.14169 51.9173L21.0111 56.0384C21.0361 56.043 21.0611 56.0472 21.0862 56.0509C21.2089 56.071 21.3441 56.0935 21.3441 56.2087C21.3441 56.3339 21.1964 56.3914 21.0712 56.439L21.0136 56.464L10.155 61.0634ZM0 48.5573C0.0226439 48.1364 0.0983541 47.72 0.225334 47.318C0.595883 46.1513 1.60237 45.1448 3.62036 43.1268L11.9827 34.7644C15.833 40.3524 19.6938 45.9332 23.5649 51.5067C23.6325 51.5968 23.7076 51.697 23.63 51.7721C23.2645 52.1752 22.8989 52.6158 22.641 53.0941C22.6131 53.1555 22.57 53.2089 22.5158 53.2493C22.4833 53.2693 22.4482 53.2618 22.4107 53.2543H22.4057L0 48.5548V48.5573ZM14.2211 32.5261L25.4602 21.2819C26.5193 21.7451 30.3675 23.37 33.8051 24.8222C36.4089 25.9238 38.7824 26.9253 39.5285 27.2508C39.6036 27.2808 39.6712 27.3109 39.7038 27.386C39.7238 27.431 39.7138 27.4886 39.7038 27.5362C39.5258 28.3478 39.5523 29.191 39.7808 29.9899C40.0094 30.7887 40.4329 31.5183 41.0132 32.113C41.0884 32.1881 41.0132 32.2957 40.9481 32.3884L40.9131 32.441L29.4962 50.1247C29.4661 50.1747 29.4386 50.2173 29.3885 50.2498C29.3284 50.2874 29.2433 50.2699 29.1732 50.2523C28.7292 50.136 28.2727 50.0738 27.8137 50.0671C27.4031 50.0671 26.9574 50.1422 26.5068 50.2248H26.5043C26.4542 50.2323 26.4091 50.2423 26.3691 50.2123C26.3248 50.1761 26.2868 50.133 26.2564 50.0846L14.2186 32.5261H14.2211ZM27.7361 19.0111L42.2926 4.45452C44.3081 2.43903 45.3171 1.43004 46.4838 1.06199C47.4664 0.751308 48.5208 0.751308 49.5033 1.06199C50.67 1.43004 51.679 2.43903 53.6945 4.45452L56.8492 7.60919L46.4964 23.6429C46.4708 23.6896 46.4358 23.7305 46.3937 23.7631C46.3311 23.8057 46.2435 23.7881 46.1684 23.7631C45.3521 23.5154 44.4878 23.4703 43.6502 23.6317C42.8126 23.7931 42.027 24.1562 41.3613 24.6895C41.2937 24.7596 41.1935 24.7195 41.1084 24.682C39.7564 24.0936 29.2408 19.6495 27.7361 19.0111V19.0111ZM59.0475 9.80745L68.6066 19.3666L66.3032 33.6327V33.6703C66.3011 33.7028 66.2944 33.7348 66.2832 33.7654C66.2581 33.8155 66.2081 33.8255 66.158 33.8405C65.6655 33.9897 65.2017 34.2208 64.7859 34.524C64.7681 34.5368 64.7513 34.551 64.7359 34.5666C64.7083 34.5967 64.6808 34.6242 64.6357 34.6292C64.599 34.6303 64.5625 34.6244 64.5281 34.6117L49.9615 28.4225L49.934 28.41C49.8413 28.3724 49.7312 28.3274 49.7312 28.2322C49.6455 27.4205 49.3804 26.638 48.955 25.9413C48.8849 25.8262 48.8073 25.706 48.8674 25.5883L59.0475 9.80745ZM49.2029 31.3544L62.8581 37.1379C62.9332 37.173 63.0158 37.2055 63.0484 37.2831C63.0614 37.3298 63.0614 37.3792 63.0484 37.4258C63.0083 37.6261 62.9733 37.854 62.9733 38.0843V38.4674C62.9733 38.5625 62.8756 38.6026 62.7855 38.6401L62.7579 38.6502C60.5947 39.574 32.388 51.6018 32.3454 51.6018C32.3028 51.6018 32.2578 51.6018 32.2152 51.5593C32.1401 51.4842 32.2152 51.379 32.2828 51.2839C32.2948 51.2674 32.3064 51.2507 32.3179 51.2338L43.5395 33.8581L43.5595 33.828C43.6246 33.7229 43.6997 33.6052 43.8199 33.6052L43.9326 33.6227C44.1879 33.6578 44.4133 33.6903 44.6411 33.6903C46.3436 33.6903 47.921 32.8616 48.8724 31.4445C48.895 31.4066 48.9238 31.3728 48.9575 31.3443C49.0251 31.2943 49.1253 31.3193 49.2029 31.3544V31.3544ZM33.5647 54.3509L64.3102 41.239C64.3102 41.239 64.3553 41.239 64.3979 41.2816C64.5656 41.4493 64.7083 41.562 64.846 41.6671L64.9136 41.7097C64.9762 41.7447 65.0388 41.7848 65.0438 41.8499C65.0438 41.8749 65.0438 41.89 65.0388 41.9125L62.4049 58.0915L62.3949 58.1565C62.3774 58.2817 62.3599 58.4244 62.2422 58.4244C61.54 58.4718 60.8599 58.6897 60.2609 59.0593C59.6619 59.4288 59.162 59.9388 58.8046 60.5451L58.7921 60.5651C58.757 60.6227 58.7245 60.6778 58.6669 60.7078C58.6143 60.7329 58.5467 60.7229 58.4916 60.7103L33.9728 55.6528C33.9478 55.6478 33.5922 54.3534 33.5647 54.3509V54.3509Z" fill="url(#paint0_radial)"/>
<path fill-rule="evenodd" clip-rule="evenodd" d="M167.895 29.1926C157.05 29.1926 148.258 37.9841 148.258 48.829C148.258 59.6738 157.05 68.4653 167.895 68.4653C178.739 68.4653 187.531 59.6738 187.531 48.829C187.531 37.9841 178.739 29.1926 167.895 29.1926ZM143.895 48.829C143.895 35.5741 154.64 24.829 167.895 24.829C181.149 24.829 191.895 35.5741 191.895 48.829C191.895 62.0838 181.149 72.829 167.895 72.829C154.64 72.829 143.895 62.0838 143.895 48.829ZM167.895 37.9199C169.1 37.9199 170.076 38.8967 170.076 40.1017V46.6472H176.622C177.827 46.6472 178.804 47.624 178.804 48.829C178.804 50.034 177.827 51.0108 176.622 51.0108H170.076V57.5563C170.076 58.7612 169.1 59.7381 167.895 59.7381C166.69 59.7381 165.713 58.7612 165.713 57.5563V51.0108H159.167C157.962 51.0108 156.985 50.034 156.985 48.829C156.985 47.624 157.962 46.6472 159.167 46.6472H165.713V40.1017C165.713 38.8967 166.69 37.9199 167.895 37.9199Z" fill="black"/>
<path d="M296.451 18.8686L268.173 36.9082L296.451 54.9478L268.173 72.9874L239.895 54.8503L268.173 36.8107L239.895 18.8686L268.173 0.828979L296.451 18.8686ZM268.027 78.7894L296.305 60.7498L324.583 78.7894L296.305 96.829L268.027 78.7894ZM296.451 54.8503L324.729 36.8107L296.451 18.8686L324.583 0.828979L352.862 18.8686L324.583 36.9082L352.862 54.9478L324.583 72.9874L296.451 54.8503Z" fill="#0061FF"/>
<path fill-rule="evenodd" clip-rule="evenodd" d="M424.861 29.1926C414.017 29.1926 405.225 37.9841 405.225 48.829C405.225 59.6738 414.017 68.4653 424.861 68.4653C435.706 68.4653 444.498 59.6738 444.498 48.829C444.498 37.9841 435.706 29.1926 424.861 29.1926ZM400.861 48.829C400.861 35.5741 411.607 24.829 424.861 24.829C438.116 24.829 448.861 35.5741 448.861 48.829C448.861 62.0838 438.116 72.829 424.861 72.829C411.607 72.829 400.861 62.0838 400.861 48.829ZM424.861 37.9199C426.066 37.9199 427.043 38.8967 427.043 40.1017V46.6472H433.589C434.794 46.6472 435.771 47.624 435.771 48.829C435.771 50.034 434.794 51.0108 433.589 51.0108H427.043V57.5563C427.043 58.7612 426.066 59.7381 424.861 59.7381C423.656 59.7381 422.68 58.7612 422.68 57.5563V51.0108H416.134C414.929 51.0108 413.952 50.034 413.952 48.829C413.952 47.624 414.929 46.6472 416.134 46.6472H422.68V40.1017C422.68 38.8967 423.656 37.9199 424.861 37.9199Z" fill="black"/>
<path d="M532.354 82.215C531.432 82.215 530.971 80.9854 530.971 78.5161V17.5406C530.971 16.3623 530.736 15.809 530.254 15.8807L525.838 16.9873C525.028 17.059 524.629 16.2496 524.629 14.559V9.26165C524.629 7.79643 525.069 6.96649 525.951 6.78205L540.521 3.03192C540.633 3.00119 540.797 2.98069 541.013 2.98069C541.822 2.98069 542.222 3.84138 542.222 5.57299V78.5263C542.222 80.9957 541.74 82.2252 540.787 82.2252L532.354 82.215ZM570.091 82.3277C568.616 82.3277 567.345 82.2252 566.259 82.0203C565.173 81.8154 564.046 81.3543 562.868 80.637C561.689 79.9198 560.726 78.9362 559.968 77.6861C559.21 76.4361 558.595 74.684 558.124 72.44C557.652 70.1961 557.407 67.5321 557.407 64.4377V36.1376C557.407 35.3998 557.202 35.031 556.802 35.031H553.38C552.458 35.031 551.997 34.1498 551.997 32.3874V29.4058C551.997 27.6024 552.458 26.7008 553.38 26.7008H556.802C557.202 26.7008 557.407 26.2089 557.407 25.2151L558.4 3.74916C558.513 1.80237 558.984 0.828979 559.835 0.828979H565.358C566.28 0.828979 566.741 1.80237 566.741 3.74916V25.2151C566.741 26.2089 566.956 26.7008 567.407 26.7008H574.446C575.368 26.7008 575.829 27.6024 575.829 29.4058V32.3874C575.829 34.1498 575.368 35.031 574.446 35.031H567.386C567.13 35.031 566.956 35.0925 566.864 35.2257C566.772 35.3486 566.731 35.656 566.731 36.1376V64.6119C566.731 66.7431 566.864 68.526 567.141 69.94C567.417 71.3539 567.817 72.3991 568.35 73.0548C568.882 73.7106 569.415 74.1614 569.948 74.3766C570.481 74.602 571.137 74.7045 571.905 74.7045H575.819C576.813 74.7045 577.305 75.391 577.305 76.7435V80.053C577.305 81.5592 576.772 82.3174 575.706 82.3174L570.091 82.3277ZM591.27 88.9468C592.111 88.9468 592.848 88.2603 593.473 86.877C594.098 85.4938 594.416 83.5367 594.416 80.9957C594.416 80.4014 594.047 78.3624 593.309 74.8684L582.489 29.8976C582.418 29.3853 582.377 28.9754 582.377 28.6783C582.377 27.3565 582.653 26.6905 583.207 26.6905H589.887C590.399 26.6905 590.82 26.8647 591.158 27.2131C591.496 27.5615 591.752 28.2684 591.926 29.3341L599.099 67.2964C599.242 67.737 599.334 67.9624 599.375 67.9624C599.519 67.9624 599.601 67.7575 599.601 67.3579L605.226 29.498C605.369 28.3914 605.605 27.6537 605.912 27.2643C606.22 26.875 606.619 26.6803 607.101 26.6803H611.732C612.357 26.6803 612.675 27.3975 612.675 28.832C612.675 29.1599 612.634 29.5902 612.562 30.1025L602.736 81.2621C601.968 85.4938 601.117 88.7316 600.195 90.9755C599.273 93.2194 598.248 94.7461 597.101 95.5556C595.754 96.4262 594.175 96.8691 592.572 96.8261H592.018C589.037 96.8261 587.018 96.0372 585.953 94.449C585.655 94.1211 585.512 93.2707 585.512 91.9079C585.512 89.1824 585.953 87.8197 586.834 87.8197C586.906 87.8197 587.572 88.0041 588.822 88.373C590.092 88.7623 590.902 88.9468 591.27 88.9468ZM504.587 82.3174C503.665 82.3174 503.204 81.0879 503.204 78.6185V17.6431C503.204 16.4648 502.968 15.9115 502.487 15.9832L498.071 17.0898C497.261 17.1615 496.861 16.3521 496.861 14.6614V9.36411C496.861 7.89889 497.302 7.06895 498.183 6.88452L512.764 3.12414C512.876 3.0934 513.04 3.07291 513.255 3.07291C514.065 3.07291 514.465 3.93359 514.465 5.66521V78.6185C514.465 81.0879 513.983 82.3174 513.03 82.3174H504.587Z" fill="black"/>
<defs>
<radialGradient id="paint0_radial" cx="0" cy="0" r="1" gradientUnits="userSpaceOnUse" gradientTransform="translate(-3.21959 47.4745) rotate(90) scale(95.8944 110.714)">
<stop stop-color="#20C6B7"/>
<stop offset="1" stop-color="#4D9ABF"/>
</radialGradient>
</defs>
</svg>
