<svg width="16" height="16" viewBox="0 0 16 16" fill="none" xmlns="http://www.w3.org/2000/svg">
<mask id="mask0" mask-type="alpha" maskUnits="userSpaceOnUse" x="0" y="1" width="7" height="15">
<rect x="0.27832" y="1.66968" width="6.67826" height="13.3565" fill="#C4C4C4"/>
</mask>
<g mask="url(#mask0)">
<path d="M9.9476 6.30474L9.94272 6.30265C9.93993 6.3016 9.93715 6.30056 9.93471 6.29812C9.93071 6.29383 9.92775 6.28867 9.92606 6.28306C9.92437 6.27744 9.92399 6.27151 9.92495 6.26572L10.1942 4.61946L11.457 5.88255L10.1437 6.44129C10.1401 6.44276 10.1362 6.44347 10.1322 6.44338H10.127C10.1253 6.44233 10.1235 6.44094 10.12 6.43746C10.0712 6.38304 10.0127 6.33806 9.9476 6.30474V6.30474ZM11.7792 6.20442L13.1294 7.55459C13.4098 7.83535 13.5501 7.97539 13.6014 8.13771C13.609 8.16175 13.6153 8.18579 13.6202 8.21052L10.3935 6.84397C10.3917 6.84326 10.39 6.84256 10.3882 6.84188C10.3754 6.83666 10.3604 6.83074 10.3604 6.8175C10.3604 6.80426 10.3757 6.79799 10.3886 6.79277L10.3928 6.79102L11.7792 6.20442ZM13.5651 8.64386C13.4955 8.77483 13.3596 8.91069 13.1297 9.14094L11.6074 10.6628L9.63862 10.2528L9.62817 10.2508C9.61075 10.248 9.59229 10.2448 9.59229 10.2292C9.58481 10.1479 9.56069 10.0691 9.52144 9.99764C9.48219 9.92614 9.42864 9.86349 9.36412 9.81359C9.35611 9.80558 9.3582 9.79304 9.36064 9.78154C9.36064 9.7798 9.36064 9.77806 9.36134 9.77666L9.73162 7.50338L9.73302 7.49572C9.73511 7.4783 9.73824 7.4581 9.75392 7.4581C9.83327 7.44823 9.90987 7.42266 9.97924 7.38289C10.0486 7.34312 10.1094 7.28994 10.158 7.22645C10.1611 7.22297 10.1632 7.21914 10.1674 7.21705C10.1785 7.21182 10.1918 7.21705 10.2033 7.22192L13.5648 8.64386H13.5651ZM11.2574 11.0129L8.75418 13.5161L9.18264 10.8826L9.18333 10.8792C9.18368 10.8757 9.18438 10.8722 9.18542 10.8691C9.18891 10.8607 9.19796 10.8572 9.20667 10.8537L9.21085 10.852C9.30467 10.812 9.38764 10.7502 9.45295 10.6719C9.46131 10.6621 9.47141 10.6527 9.4843 10.651C9.48765 10.6505 9.49106 10.6505 9.4944 10.651L11.257 11.0133L11.2574 11.0129ZM8.22435 14.0459L7.94219 14.3281L4.82279 9.81986C4.82166 9.81821 4.8205 9.81658 4.81931 9.81498C4.81443 9.80836 4.8092 9.80174 4.81025 9.79408C4.81025 9.78851 4.81408 9.78363 4.81791 9.77945L4.8214 9.77492C4.8308 9.76099 4.83881 9.74705 4.84752 9.73208L4.85449 9.71988L4.85553 9.71884C4.86041 9.71048 4.86494 9.70247 4.8733 9.69794C4.88061 9.69445 4.89072 9.69585 4.89873 9.69759L8.35463 10.4103C8.36429 10.4118 8.37341 10.4158 8.3811 10.4218C8.38563 10.4263 8.38668 10.4312 8.38772 10.4368C8.41183 10.528 8.45669 10.6124 8.51881 10.6834C8.58093 10.7544 8.65862 10.8101 8.74582 10.8461C8.75557 10.851 8.75139 10.8617 8.74686 10.8732C8.7446 10.8783 8.74285 10.8835 8.74164 10.8889C8.69809 11.1537 8.32467 13.4311 8.22435 14.0459ZM7.63495 14.635C7.42699 14.8409 7.30438 14.9499 7.16574 14.9938C7.02904 15.037 6.88233 15.037 6.74564 14.9938C6.58331 14.9422 6.44293 14.8022 6.16251 14.5214L3.02987 11.3888L3.84813 10.1198C3.85196 10.1135 3.85579 10.1079 3.86206 10.1034C3.87077 10.0971 3.88331 10.0999 3.89376 10.1034C4.08157 10.1601 4.28322 10.1499 4.46435 10.0745C4.47375 10.071 4.48316 10.0686 4.49047 10.0752C4.49413 10.0785 4.4974 10.0823 4.50022 10.0863L7.63495 14.6353V14.635ZM2.72786 11.0868L2.00923 10.3681L3.42838 9.76273C3.432 9.76115 3.43591 9.76032 3.43987 9.76029C3.45172 9.76029 3.45868 9.77214 3.46495 9.78293C3.47921 9.80488 3.49432 9.82626 3.51024 9.84703L3.51477 9.8526C3.51895 9.85852 3.51616 9.86445 3.51198 9.87002L2.72821 11.0868H2.72786ZM1.6912 10.0501L0.782023 9.14094C0.627359 8.98628 0.515193 8.87411 0.437164 8.77762L3.20161 9.35099C3.20508 9.35163 3.20856 9.35221 3.21206 9.35273C3.22912 9.35552 3.24794 9.35865 3.24794 9.37468C3.24794 9.39209 3.22738 9.40011 3.20997 9.40672L3.20195 9.41021L1.6912 10.0501ZM0.27832 8.31014C0.281471 8.25158 0.292004 8.19364 0.309671 8.13771C0.361226 7.97539 0.501259 7.83535 0.782023 7.55459L1.94548 6.39113C2.48118 7.16859 3.01832 7.94504 3.55691 8.72049C3.56632 8.73303 3.57677 8.74696 3.56597 8.75742C3.51511 8.8135 3.46426 8.87481 3.42838 8.94134C3.42448 8.94989 3.41849 8.95732 3.41096 8.96294C3.40643 8.96572 3.40155 8.96468 3.39633 8.96363H3.39563L0.27832 8.3098V8.31014ZM2.2569 6.07971L3.82061 4.51531C3.96796 4.57975 4.50336 4.80582 4.98163 5.00786C5.34391 5.16113 5.67414 5.30047 5.77794 5.34575C5.78839 5.34993 5.7978 5.35411 5.80233 5.36456C5.80511 5.37083 5.80372 5.37885 5.80233 5.38546C5.77756 5.49839 5.78125 5.6157 5.81305 5.72684C5.84485 5.83799 5.90377 5.9395 5.98451 6.02223C5.99496 6.03268 5.98451 6.04766 5.97545 6.06055L5.97058 6.06787L4.38214 8.52821C4.37796 8.53517 4.37412 8.54109 4.36716 8.54562C4.3588 8.55085 4.34695 8.54841 4.3372 8.54597C4.27542 8.52979 4.21191 8.52113 4.14805 8.52019C4.09092 8.52019 4.02892 8.53064 3.96622 8.54214H3.96587C3.9589 8.54318 3.95263 8.54458 3.94706 8.5404C3.9409 8.53537 3.93561 8.52937 3.93138 8.52263L2.25655 6.07971H2.2569ZM4.13725 4.19936L6.16251 2.1741C6.44293 1.89369 6.58331 1.7533 6.74564 1.7021C6.88233 1.65887 7.02904 1.65887 7.16574 1.7021C7.32806 1.7533 7.46845 1.89369 7.74886 2.1741L8.18777 2.61301L6.74738 4.84379C6.74382 4.85029 6.73895 4.85598 6.7331 4.86051C6.72439 4.86644 6.7122 4.864 6.70175 4.86051C6.58818 4.82605 6.46793 4.81978 6.3514 4.84223C6.23486 4.86469 6.12555 4.9152 6.03293 4.9894C6.02352 4.99915 6.00959 4.99358 5.99775 4.98835C5.80964 4.90649 4.34661 4.28819 4.13725 4.19936V4.19936ZM8.49362 2.91886L9.82359 4.24882L9.50311 6.23368V6.2389C9.50283 6.24343 9.50189 6.24788 9.50033 6.25214C9.49684 6.25911 9.48987 6.2605 9.48291 6.26259C9.41439 6.28334 9.34986 6.31549 9.29202 6.35769C9.28953 6.35946 9.2872 6.36144 9.28505 6.36361C9.28122 6.36779 9.27739 6.37162 9.27112 6.37232C9.26601 6.37248 9.26093 6.37165 9.25614 6.36988L7.22948 5.50878L7.22565 5.50704C7.21276 5.50181 7.19744 5.49554 7.19744 5.4823C7.18552 5.36937 7.14864 5.26049 7.08945 5.16357C7.0797 5.14755 7.0689 5.13083 7.07726 5.11445L8.49362 2.91886ZM7.12394 5.91669L9.02379 6.72136C9.03424 6.72623 9.04574 6.73076 9.05027 6.74156C9.05208 6.74805 9.05208 6.75492 9.05027 6.76142C9.04469 6.78928 9.03982 6.82098 9.03982 6.85303V6.90633C9.03982 6.91956 9.02623 6.92514 9.01369 6.93036L9.00986 6.93175C8.70889 7.06029 4.78447 8.73373 4.77855 8.73373C4.77263 8.73373 4.76636 8.73373 4.76044 8.72781C4.74999 8.71736 4.76044 8.70273 4.76984 8.68949C4.7715 8.68719 4.77313 8.68487 4.77472 8.68252L6.33599 6.26503L6.33877 6.26085C6.34783 6.24622 6.35828 6.22985 6.375 6.22985L6.39068 6.23228C6.42621 6.23716 6.45756 6.24169 6.48926 6.24169C6.72613 6.24169 6.94559 6.12639 7.07796 5.92923C7.08111 5.92396 7.08511 5.91925 7.0898 5.91529C7.0992 5.90833 7.11314 5.91181 7.12394 5.91669V5.91669ZM4.94819 9.11621L9.22583 7.29194C9.22583 7.29194 9.2321 7.29194 9.23802 7.29786C9.26136 7.3212 9.28122 7.33688 9.30038 7.35151L9.30978 7.35743C9.31849 7.36231 9.3272 7.36788 9.3279 7.37694C9.3279 7.38042 9.3279 7.38251 9.3272 7.38564L8.96074 9.63663L8.95935 9.64569C8.95691 9.6631 8.95447 9.68296 8.9381 9.68296C8.8404 9.68955 8.74578 9.71987 8.66244 9.77128C8.5791 9.82269 8.50956 9.89365 8.45983 9.97801L8.45809 9.98079C8.45321 9.9888 8.44868 9.99647 8.44067 10.0006C8.43335 10.0041 8.42395 10.0027 8.41629 10.001L5.00497 9.29734C5.00149 9.29665 4.95202 9.11656 4.94819 9.11621V9.11621Z" fill="url(#paint0_radial)"/>
</g>
<mask id="mask1" mask-type="alpha" maskUnits="userSpaceOnUse" x="8" y="1" width="8" height="15">
<rect x="8.06958" y="1.66968" width="7.7913" height="13.3565" fill="#C4C4C4"/>
</mask>
<g mask="url(#mask1)">
<path d="M8.00791 4.31845L4.07353 6.82831L8.00791 9.33817L4.07353 11.848L0.13916 9.3246L4.07353 6.81475L0.13916 4.31845L4.07353 1.80859L8.00791 4.31845ZM4.05318 12.6553L7.98756 10.1454L11.9219 12.6553L7.98756 15.1651L4.05318 12.6553ZM8.00791 9.3246L11.9423 6.81475L8.00791 4.31845L11.9219 1.80859L15.8563 4.31845L11.9219 6.82831L15.8563 9.33817L11.9219 11.848L8.00791 9.3246Z" fill="#0061FF"/>
</g>
<defs>
<radialGradient id="paint0_radial" cx="0" cy="0" r="1" gradientUnits="userSpaceOnUse" gradientTransform="translate(-0.169623 8.15949) rotate(90) scale(13.3418 15.4036)">
<stop stop-color="#20C6B7"/>
<stop offset="1" stop-color="#4D9ABF"/>
</radialGradient>
</defs>
</svg>
